HIERARCHY
ROOT hip
{
	OFFSET 0.000000 0.000000 0.000000 
	CHANNELS 6 Xposition Yposition Zposition Xrotation Zrotation Yrotation
	JOINT abdomen
	{
		OFFSET 0.000000 3.402643 0.000000 
		CHANNELS 3 Xrotation Zrotation Yrotation
		JOINT chest
		{
			OFFSET 0.000000 8.438565 -0.680529 
			CHANNELS 3 Xrotation Zrotation Yrotation
			JOINT neck
			{
				OFFSET 0.000000 10.207942 -0.272212 
				CHANNELS 3 Xrotation Zrotation Yrotation
				JOINT head
				{
					OFFSET 0.000000 3.130431 0.000000 
					CHANNELS 3 Xrotation Zrotation Yrotation
					End Site
					{
						OFFSET 0.000000 3.130435 0.000000 
					}
				}
			}
			JOINT lCollar
			{
				OFFSET 3.470700 6.669187 -0.816635 
				CHANNELS 3 Yrotation Zrotation Xrotation
				JOINT lShldr
				{
					OFFSET 3.198488 0.000000 0.000000 
					CHANNELS 3 Zrotation Yrotation Xrotation
					JOINT lForeArm
					{
						OFFSET 10.139888 0.000000 0.000000 
						CHANNELS 3 Yrotation Zrotation Xrotation
						JOINT lHand
						{
							OFFSET 8.370511 0.000000 0.000000 
							CHANNELS 3 Zrotation Yrotation Xrotation
							End Site
							{
								OFFSET 4.083176 0.000000 0.000000 
							}
						}
					}
				}
			}
			JOINT rCollar
			{
				OFFSET -3.470700 6.669187 -0.816635 
				CHANNELS 3 Yrotation Zrotation Xrotation
				JOINT rShldr
				{
					OFFSET -3.198488 0.000000 0.000000 
					CHANNELS 3 Zrotation Yrotation Xrotation
					JOINT rForeArm
					{
						OFFSET -10.139888 0.000000 0.000000 
						CHANNELS 3 Yrotation Zrotation Xrotation
						JOINT rHand
						{
							OFFSET -8.370511 0.000000 0.000000 
							CHANNELS 3 Zrotation Yrotation Xrotation
							End Site
							{
								OFFSET -4.083176 0.000000 0.000000 
							}
						}
					}
				}
			}
		}
	}
	JOINT lThigh
	{
		OFFSET 5.308129 -1.633274 1.361059 
		CHANNELS 3 Xrotation Zrotation Yrotation
		JOINT lShin
		{
			OFFSET -2.041588 -20.007561 0.000000 
			CHANNELS 3 Xrotation Zrotation Yrotation
			JOINT lFoot
			{
				OFFSET 0.000000 -19.190928 -1.224953 
				CHANNELS 3 Xrotation Yrotation Zrotation
				End Site
				{
					OFFSET 0.000000 -2.449906 4.627600 
				}
			}
		}
	}
	JOINT rThigh
	{
		OFFSET -5.308129 -1.633274 1.361059 
		CHANNELS 3 Xrotation Zrotation Yrotation
		JOINT rShin
		{
			OFFSET 2.041588 -20.007561 0.000000 
			CHANNELS 3 Xrotation Zrotation Yrotation
			JOINT rFoot
			{
				OFFSET 0.000000 -19.190928 -1.224953 
				CHANNELS 3 Xrotation Yrotation Zrotation
				End Site
				{
					OFFSET 0.000000 -2.449906 4.627600 
				}
			}
		}
	}
}
MOTION
Frames: 19
Frame Time: 0.016667
1.613961 36.389870 -1.292612 -178.375153 172.978516 -0.048462 54.397655 13.624677 9.621395 2.921123 -2.216285 1.758403 -2.067677 5.514794 0.026961 -0.480307 -7.706227 6.395653 -16.883333 -7.840736 -0.413760 -68.479919 -11.805487 2.165554 -91.180305 5.000000 0.484504 5.454369 0.249565 -45.000000 15.202690 -8.075123 0.413013 55.685795 25.749037 7.372182 98.812698 5.000000 -4.983304 -1.468546 -17.643402 -39.516457 -68.560745 15.155624 1.060512 100.279068 2.888051 -12.140976 -23.493063 1.506484 4.802777 -11.375700 -8.295841 -35.892094 105.578667 -6.139995 17.378746 -52.855316 -9.868298 -3.832594 
2.143152 35.616257 -1.963780 -176.530228 172.468369 3.891933 53.703201 14.885572 9.400764 3.251827 -2.333471 1.778336 -1.687528 6.010659 0.041435 0.275317 -6.851894 4.720356 -17.029387 -7.782199 -0.410738 -68.057777 -11.151991 0.767107 -89.612160 5.000000 -0.049131 5.559844 0.321542 -45.000000 14.728014 -7.207082 0.368066 55.510353 25.173557 7.146449 98.145912 5.000000 -4.719697 -1.341517 -17.687429 -39.784088 -68.857346 14.489744 1.091415 103.112816 3.539614 -12.072736 -24.007734 0.508779 5.745022 -8.193250 -7.878634 -39.130863 107.065468 -6.599192 17.198427 -50.915237 -9.646132 -2.125030 
2.646950 34.821236 -2.659540 -174.679489 172.083572 7.740468 52.966953 16.114902 9.119558 3.582222 -2.431114 1.827171 -1.327162 6.466435 0.052160 0.993292 -6.026427 3.092989 -17.146076 -7.713912 -0.407214 -67.657608 -10.487650 -0.621409 -88.145569 5.000000 -0.408052 5.679973 0.406501 -45.000000 14.264031 -6.378048 0.323976 55.388046 24.665306 6.979846 97.412697 5.000000 -4.393493 -1.242947 -17.701292 -40.042053 -69.197113 13.818171 1.031702 106.002686 4.147297 -11.913775 -24.561731 -0.374976 6.721441 -5.058712 -7.255535 -39.996941 108.496002 -7.056638 17.042658 -48.959045 -9.370448 -0.371587 
3.122836 34.009212 -3.371313 7.067203 8.265887 -169.014908 52.080284 17.167765 8.662558 3.968730 -2.411489 2.012623 -1.040384 6.750803 0.038608 1.674991 -5.378458 1.716104 -17.124735 -7.638772 -0.393944 -67.313835 -9.765817 -2.039152 -87.059280 5.000000 -0.549464 5.909217 0.484728 -45.000000 13.909127 -5.753832 0.291657 55.579456 24.481945 7.161952 96.449471 5.000000 -3.890493 -1.277150 -17.541639 -40.289608 -69.764839 13.115443 0.736757 109.190582 4.608010 -11.259060 -25.451752 -0.512644 7.962249 -2.061846 -6.325377 -39.990665 109.726913 -7.515371 17.083319 -46.935596 -9.434380 1.446079 
3.566850 33.188049 -4.090547 8.804350 8.517858 -165.875549 51.142677 18.171480 8.157473 4.364748 -2.372312 2.227766 -0.773068 7.006202 0.029403 2.340549 -4.755748 0.391709 -17.085060 -7.551001 -0.389417 -67.004662 -9.027733 -3.439832 -86.064240 5.000000 -0.584502 6.160601 0.560995 -45.000000 13.574332 -5.178379 0.261831 55.824627 24.371693 7.405696 95.424843 5.000000 -3.327451 -1.343485 -17.339506 -40.517578 -70.352264 12.400850 0.379793 112.404655 4.995228 -10.541080 -26.395071 -0.573589 9.192968 0.875832 -5.259926 -39.992363 110.940475 -8.004219 17.148153 -44.830135 -9.447073 3.324965 
3.977326 32.388481 -4.776725 10.304911 8.677265 -163.308182 50.171364 18.994467 7.559066 4.690193 -2.333061 2.501049 -0.578935 7.033720 0.015437 2.990111 -4.237979 -0.686055 -16.899248 -7.511992 -0.387405 -66.756592 -8.322886 -4.664112 -85.185501 5.000000 -0.580836 6.432766 0.612062 -45.000000 13.406376 -4.729735 0.237758 56.255322 24.464329 7.884693 94.230217 5.000000 -2.631988 -1.543882 -17.103863 -40.847130 -71.064384 11.777767 -0.026247 115.460670 5.253254 -9.726362 -27.397554 -0.289200 10.324538 3.388403 -4.121609 -39.993145 112.040070 -8.436591 17.205259 -43.043552 -9.470695 5.077613 
4.355469 31.601702 -5.438401 11.541267 8.786988 -161.315445 49.169418 19.608110 6.861117 4.954809 -2.274172 2.862564 -0.459025 6.822247 -0.012588 3.637342 -3.836532 -1.527211 -16.557447 -7.511992 -0.387405 -66.574310 -7.661667 -5.701353 -84.431938 4.963273 -0.572341 6.713605 0.631176 -45.000000 13.405097 -4.407902 0.221117 56.897003 24.754230 8.624996 92.851624 5.000000 -1.792969 -1.892357 -16.831028 -41.264114 -71.880211 11.269199 -0.492467 118.337334 5.337850 -8.836782 -28.464527 0.326842 11.346106 5.537757 -2.965878 -39.997334 112.995514 -8.835455 17.236139 -41.622551 -9.435230 6.749670 
4.692744 30.871817 -6.043161 12.712926 8.863750 -159.490051 48.159149 20.189308 6.190655 5.200449 -2.225025 3.214318 -0.358302 6.562488 -0.032168 4.259493 -3.464036 -2.289830 -16.207329 -7.538522 -0.398210 -66.429131 -7.002070 -6.690478 -83.687637 3.798109 -0.545405 6.992276 0.634506 -45.000000 13.443690 -4.093556 0.214448 57.550888 25.066147 9.400803 91.409752 5.000000 -0.886847 -2.270600 -16.557131 -41.707939 -72.734970 10.809278 -0.952661 121.136482 5.374512 -7.959855 -29.433178 0.953535 12.286820 7.513865 -1.816907 -39.993168 113.964081 -9.217556 17.270388 -40.188057 -9.354219 8.416337 
4.990981 30.201700 -6.587294 13.431372 9.003659 -158.599594 47.239277 20.547834 5.744883 5.338207 -2.224684 3.556324 -0.358779 5.997581 -0.046024 4.736850 -3.326390 -2.700401 -15.720660 -7.762907 -0.409796 -66.386703 -6.438256 -7.405342 -82.996986 3.390647 -0.589292 7.216594 0.553078 -45.000000 13.735953 -3.898505 0.204357 58.331535 25.473696 10.424618 89.708855 5.000000 0.212693 -2.824763 -16.256336 -42.296108 -73.639755 10.682833 -1.444679 123.400826 5.157587 -7.065737 -30.347326 1.829839 12.981980 8.754959 -0.830688 -40.000000 114.858566 -9.507208 17.162819 -39.195568 -9.222297 9.772379 
5.252185 29.599331 -7.070320 14.090796 9.149299 -157.867752 46.326927 20.873713 5.315842 5.446230 -2.234063 3.908096 -0.368776 5.373268 -0.060736 5.201260 -3.237629 -3.042185 -15.214800 -8.026304 -0.423383 -66.375900 -5.882576 -8.074875 -82.305779 3.128248 -0.644813 7.421365 0.443248 -45.000000 14.067346 -3.713206 0.194768 59.153412 25.885921 11.515224 87.951401 5.000000 1.365774 -3.420341 -15.955975 -42.908497 -74.548698 10.624311 -1.971366 125.616943 4.855930 -6.179204 -31.233297 2.726940 13.607244 9.876890 0.095236 -39.995533 115.704811 -9.745734 17.063402 -38.264412 -9.055062 11.054691 
5.473163 29.117830 -7.463347 14.438288 9.400404 -157.542847 45.543297 21.215448 5.066603 5.466403 -2.272743 4.191538 -0.495252 4.602644 -0.063170 5.500335 -3.207957 -3.179233 -14.690699 -8.445742 -0.446425 -66.384598 -5.413317 -8.544211 -81.532166 3.254560 -0.724611 7.558471 0.232773 -45.000000 14.516020 -3.547413 0.186187 59.947731 26.213743 12.574217 86.102562 5.000000 2.602450 -3.907646 -15.658484 -43.541237 -75.432976 10.701920 -2.505659 127.320557 4.503161 -5.446895 -31.964520 3.600156 14.000212 10.523253 0.856974 -39.994221 116.443390 -9.988054 16.999863 -37.221558 -8.779636 12.296723 
5.657595 28.739191 -7.777298 14.498692 9.749457 -157.608154 44.861618 21.567072 4.994555 5.397123 -2.360211 4.426175 -0.719525 3.692449 -0.074047 5.634209 -3.257014 -3.081185 -14.148630 -9.030970 -0.476624 -66.430481 -5.030616 -8.821302 -80.684669 3.777473 -0.843288 7.607430 -0.066102 -45.000000 15.072229 -3.410877 0.179120 60.729862 26.445175 13.623371 84.158447 5.000000 3.909932 -4.313867 -15.351988 -44.172401 -76.288681 10.897186 -3.083653 128.605011 4.091592 -4.750515 -32.550064 4.456234 14.124410 10.653028 1.473907 -39.999943 117.057747 -9.997431 16.935970 -36.103329 -8.517259 13.430217 
5.812726 28.465986 -8.024967 14.550572 10.108602 -157.682205 44.174282 21.929798 4.917538 5.326948 -2.447616 4.670573 -0.950618 2.783691 -0.075244 5.768479 -3.306040 -2.993441 -13.606977 -9.625947 -0.508907 -66.477264 -4.639009 -9.094950 -79.835526 4.306813 -0.980089 7.655847 -0.357774 -45.000000 15.638196 -3.264588 0.171546 61.513004 26.664663 14.675543 82.233223 5.000000 5.212444 -4.724051 -15.070628 -44.812286 -77.174652 11.103143 -3.676868 129.870712 3.655608 -4.113468 -33.076260 5.317160 14.257252 10.798358 2.078121 -39.995316 117.681458 -9.996819 16.883276 -34.994514 -8.175653 14.593384 
5.936082 28.326656 -8.194553 14.197960 10.630292 -157.981583 43.715054 22.451929 5.056265 5.100476 -2.613244 4.788117 -1.393580 2.014483 -0.067484 5.736698 -3.599495 -2.710774 -13.281551 -10.328160 -0.546869 -66.507469 -4.361283 -9.175337 -78.845894 4.968559 -1.215205 7.631122 -0.996260 -45.000000 16.145506 -3.089042 0.162456 62.065842 26.458788 15.278057 80.585251 5.000000 6.284041 -4.755224 -14.737614 -45.000000 -77.848991 11.249378 -4.373811 130.267014 3.330775 -3.705763 -33.496639 5.987563 13.856153 10.445389 2.604360 -39.996597 117.608696 -9.999104 17.306944 -33.810085 -7.975432 15.277860 
6.035319 28.285454 -8.309930 13.839940 11.153858 -158.278976 43.230846 22.977346 5.181192 4.873186 -2.778825 4.915429 -1.835014 1.256386 -0.051618 5.691837 -3.883242 -2.427555 -12.966372 -11.030368 -0.583115 -66.529053 -4.069222 -9.261732 -77.842979 5.000000 -1.473127 7.590199 -1.632337 -45.000000 16.662607 -2.913496 0.153364 62.603970 26.261044 15.874276 78.922630 5.000000 7.365889 -4.786208 -14.397545 -45.000000 -78.528191 11.376231 -5.098068 130.704346 2.991838 -3.305156 -33.897869 6.665604 13.487379 10.074019 3.131591 -40.000000 117.518265 -10.000000 17.708775 -32.580154 -7.772921 15.987690 
6.120180 28.316208 -8.399628 13.434188 11.593589 -158.534561 42.809395 23.462929 5.217312 4.667648 -2.924966 4.984699 -2.314311 0.597765 -0.031080 5.562081 -4.098752 -2.124886 -12.787533 -11.654531 -0.617228 -66.495209 -3.827719 -9.312872 -76.761665 5.000000 -1.721673 7.566889 -2.364694 -45.000000 17.111450 -2.767207 0.145787 63.044914 25.857676 16.160341 77.557541 5.000000 8.283014 -4.647547 -14.162808 -45.000000 -79.048370 11.454572 -5.743354 130.837601 2.786363 -3.094787 -34.102325 7.243233 12.914663 9.768952 3.655844 -39.996941 117.048843 -9.997362 18.205557 -31.695267 -7.810156 16.235327 
6.186607 28.437828 -8.453974 12.977175 11.947169 -158.726273 42.440319 23.884106 5.157245 4.464527 -3.071243 4.984702 -2.812503 0.048279 -0.007304 5.338941 -4.236170 -1.811802 -12.735354 -12.220159 -0.648450 -66.379257 -3.610326 -9.332039 -75.613228 5.000000 -1.951041 7.560364 -3.204071 -45.000000 17.501741 -2.630671 0.138714 63.387604 25.271257 16.148228 76.475159 5.000000 9.033708 -4.343190 -14.012466 -45.000000 -79.354790 11.454134 -6.330851 130.717010 2.703558 -3.013905 -34.196701 7.652241 12.126427 9.518179 4.146566 -39.996044 116.250526 -9.998442 18.809612 -31.098515 -8.051868 16.034948 
6.247078 28.580986 -8.505753 12.549296 12.245255 -158.900223 42.082672 24.247995 5.059095 4.281538 -3.207774 4.975469 -3.290969 -0.440352 0.027043 5.125299 -4.363708 -1.518200 -12.719697 -12.729414 -0.665326 -66.263039 -3.397943 -9.363132 -74.456100 5.000000 -2.176596 7.570335 -4.047863 -45.000000 17.862778 -2.503887 0.132146 63.708363 24.663734 16.070192 75.482063 5.000000 9.737383 -4.011175 -13.879322 -45.000000 -79.645134 11.474360 -6.869244 130.583542 2.659133 -2.973814 -34.250153 8.043985 11.332914 9.304908 4.626467 -39.995686 115.415405 -9.995779 19.363270 -30.862906 -8.453878 15.607609 
6.305927 28.726572 -8.566387 12.236477 12.231797 -158.961441 41.709198 24.293442 4.718451 4.174742 -3.286055 4.838885 -3.642453 -0.626732 0.035458 4.983194 -4.451996 -1.293511 -12.849360 -12.953710 -0.676891 -66.100609 -3.187302 -9.496088 -73.285217 5.000000 -2.308650 7.731810 -4.996426 -45.000000 18.077341 -2.377103 0.125577 63.919506 23.979273 15.667527 74.903580 5.000000 10.178178 -3.579421 -13.900844 -45.000000 -79.608887 11.454517 -7.116587 130.349701 2.762314 -3.099340 -34.204193 8.243834 10.469776 9.374007 4.900694 -39.995178 114.508514 -9.996350 19.647015 -32.524109 -9.525871 13.816896 
